<?xml version="1.0" ?><svg id="Layer_3" style="enable-background:new 0 0 64 64;" version="1.1" viewBox="0 0 64 64" xml:space="preserve" xmlns="http://www.w3.org/2000/svg" xmlns:xlink="http://www.w3.org/1999/xlink"><g><rect height="2" width="21" x="14" y="33"/><path d="M62,33h-3v-6c0-0.553-0.447-1-1-1H47V2c0-0.553-0.447-1-1-1H12C5.935,1,1,5.935,1,12v43v2c0,3.309,2.691,6,6,6h37h18   c0.553,0,1-0.447,1-1V34C63,33.447,62.553,33,62,33z M57,33h-2v-2c0-0.553-0.447-1-1-1H44c-0.553,0-1,0.447-1,1v3v20h-2V30v-2h16   V33z M53,33h-8v-1h8V33z M9,57h28v-2H9v-4h30v4c0,0.553,0.447,1,1,1h3v5H9V57z M28.04,19l-1.926-1.348l3.222-2.148   c1.012-0.674,2.318-0.674,3.328,0L37.909,19H28.04z M24.553,19H11.091l5.19-3.46c1.035-0.691,2.363-0.676,3.385,0.039L24.553,19z    M27.41,21l0.017,0.012L27.435,21H39v2h-1.882c-1.071,0-2.034,0.595-2.513,1.553C34.468,24.829,34.19,25,33.882,25h-1.764   c-0.309,0-0.586-0.171-0.724-0.447C30.916,23.595,29.953,23,28.882,23h-2.764c-1.071,0-2.034,0.595-2.513,1.553   C23.468,24.829,23.19,25,22.882,25h-2.764c-0.309,0-0.586-0.171-0.724-0.447C18.916,23.595,17.953,23,16.882,23h-2.764   c-1.071,0-2.034,0.595-2.513,1.553C11.468,24.829,11.19,25,10.882,25H9v-4H27.41z M39,17.324l-5.227-3.484   c-1.686-1.123-3.861-1.123-5.547,0l-3.871,2.581l-3.543-2.48c-1.699-1.19-3.914-1.216-5.641-0.064L9,17.991V11h30V17.324z M9,27   h1.882c1.071,0,2.034-0.595,2.513-1.553C13.532,25.171,13.81,25,14.118,25h2.764c0.309,0,0.586,0.171,0.724,0.447   C18.084,26.405,19.047,27,20.118,27h2.764c1.071,0,2.034-0.595,2.513-1.553C25.532,25.171,25.81,25,26.118,25h2.764   c0.309,0,0.586,0.171,0.724,0.447C30.084,26.405,31.047,27,32.118,27h1.764c1.071,0,2.034-0.595,2.513-1.553   C36.532,25.171,36.81,25,37.118,25H39v2v2H9V27z M12,3h33v23h-4V10c0-0.553-0.447-1-1-1H8c-0.553,0-1,0.447-1,1v20   c0,0.553,0.447,1,1,1h31v6H10v2h29v2H10v2h29v6H7c-1.538,0-2.937,0.586-4,1.54V12C3,7.037,7.037,3,12,3z M3,57v-2   c0-2.206,1.794-4,4-4v10C4.794,61,3,59.206,3,57z M61,61H45V35h16V61z"/><path d="M48,43h10c0.553,0,1-0.447,1-1v-4c0-0.553-0.447-1-1-1H48c-0.553,0-1,0.447-1,1v4C47,42.553,47.447,43,48,43z M49,39h8v2   h-8V39z"/><rect height="2" width="10" x="48" y="45"/><rect height="2" width="10" x="48" y="49"/><rect height="2" width="10" x="48" y="53"/><rect height="2" width="10" x="48" y="57"/></g></svg>