<?xml version="1.0" encoding="iso-8859-1"?>
<!-- Generator: Adobe Illustrator 16.0.0, SVG Export Plug-In . SVG Version: 6.00 Build 0)  -->
<!DOCTYPE svg PUBLIC "-//W3C//DTD SVG 1.1//EN" "http://www.w3.org/Graphics/SVG/1.1/DTD/svg11.dtd">
<svg version="1.1" id="Capa_1" xmlns="http://www.w3.org/2000/svg" xmlns:xlink="http://www.w3.org/1999/xlink" x="0px" y="0px"
	 width="612px" height="612px" viewBox="0 0 612 612" style="enable-background:new 0 0 612 612;" xml:space="preserve">
<g>
	<g>
		<path d="M589.142,176.179c-15.168-35.34-35.474-65.695-61.078-91.146c-25.444-25.291-56.121-45.597-91.454-60.764
			C401.155,9.054,363.944,1.41,325.11,1.41v285.954H612C612,248.53,604.355,211.626,589.142,176.179z M359.875,252.913V38.681
			c55.433,7.203,103.194,31.157,143.131,71.094c39.938,39.937,63.898,87.699,71.723,143.138H359.875z"/>
		<path d="M285.955,38.053c-38.834,0-75.738,7.651-111.185,22.865c-35.34,15.168-65.776,35.394-91.146,60.758
			c-25.364,25.371-45.857,55.693-61.072,91.146C7.383,248.156,0,285.173,0,324.008c0,38.841,7.383,76.166,22.551,111.506
			c15.214,35.447,35.781,65.688,61.072,91.14c25.451,25.604,55.806,45.911,91.146,61.078
			c35.447,15.215,72.351,22.858,111.185,22.858c38.841,0,76.019-7.73,111.506-22.858c71-30.281,122.323-81.812,152.525-152.218
			c15.208-35.454,22.865-72.665,22.865-111.506H285.955V38.053z M535.58,359.401c-8.452,60.136-39.049,115.688-83.001,154.409
			c-21.816,19.224-47.361,34.265-76.42,45.417c-28.886,11.085-58.88,16.911-90.205,16.911c-34.137,0-66.711-6.575-97.721-20.045
			c-31.004-13.464-57.785-31.164-80.175-53.555c-22.397-22.397-40.225-49.433-53.562-80.496
			c-13.29-30.95-19.731-63.892-19.731-98.035c0-41.655,9.395-80.803,28.504-116.825c19.104-36.015,45.122-65.742,77.983-88.948
			c33.222-23.459,69.845-37.899,110.25-43.225v248.998v35.394h34.452H535.58z"/>
	</g>
</g>
<g>
</g>
<g>
</g>
<g>
</g>
<g>
</g>
<g>
</g>
<g>
</g>
<g>
</g>
<g>
</g>
<g>
</g>
<g>
</g>
<g>
</g>
<g>
</g>
<g>
</g>
<g>
</g>
<g>
</g>
</svg>
